<svg width="48" height="48" viewBox="0 0 48 48" fill="none" xmlns="http://www.w3.org/2000/svg">
<circle cx="24" cy="24" r="20" fill="#181717"/>
<path d="M6.81377 34.2351C9.24841 38.3138 13.0942 41.4526 17.6775 42.9785C18.6782 43.1614 19.0428 42.5438 19.0428 42.0134C19.0428 41.7939 19.0391 41.4058 19.0342 40.8866C19.0285 40.2853 19.0211 39.5079 19.0158 38.6125C13.4527 39.8206 12.279 35.931 12.279 35.931C11.3692 33.6215 10.0579 33.0064 10.0579 33.0064C8.24199 31.7651 10.1954 31.7897 10.1954 31.7897C12.2028 31.9321 13.2587 33.8511 13.2587 33.8511C15.0427 36.9071 17.9403 36.0243 19.0796 35.5135C19.2614 34.2207 19.777 33.3391 20.3492 32.8394C15.9083 32.3348 11.239 30.6184 11.239 22.9545C11.239 20.7715 12.0187 18.9863 13.298 17.5879C13.0917 17.082 12.4054 15.0488 13.4932 12.2949C13.4932 12.2949 15.1728 11.7571 18.9937 14.3453C20.5886 13.9021 22.3001 13.6799 24.0006 13.6725C25.6986 13.6799 27.4102 13.9021 29.0075 14.3453C32.8259 11.7571 34.5019 12.2949 34.5019 12.2949C35.5934 15.0488 34.907 17.082 34.7008 17.5879C35.9826 18.9863 36.7573 20.7715 36.7573 22.9545C36.7573 30.638 32.0807 32.3287 27.625 32.8235C28.3433 33.441 28.983 34.6615 28.983 36.5277C28.983 38.3153 28.972 39.8722 28.9647 40.9036C28.9611 41.4144 28.9584 41.7963 28.9584 42.0134C28.9584 42.5488 29.3181 43.1712 30.3335 42.976C33.9847 41.7573 37.1674 39.5155 39.5406 36.5904C35.8737 41.1109 30.2742 44 24 44C16.6946 44 10.3041 40.0832 6.81377 34.2351Z" fill="white"/>
</svg>
