<svg width="223" height="84" viewBox="0 0 223 84" fill="none" xmlns="http://www.w3.org/2000/svg">
<path d="M20.412 22.728V27.66H13.716V48H7.56V27.66H0.864V22.728H20.412ZM35.8495 27.696C38.1535 27.696 40.0015 28.464 41.3935 30C42.7855 31.512 43.4815 33.6 43.4815 36.264V48H37.3615V37.092C37.3615 35.748 37.0135 34.704 36.3175 33.96C35.6215 33.216 34.6855 32.844 33.5095 32.844C32.3335 32.844 31.3975 33.216 30.7015 33.96C30.0055 34.704 29.6575 35.748 29.6575 37.092V48H23.5015V21.36H29.6575V30.612C30.2815 29.724 31.1335 29.016 32.2135 28.488C33.2935 27.96 34.5055 27.696 35.8495 27.696ZM66.6953 37.632C66.6953 38.208 66.6593 38.808 66.5873 39.432H52.6553C52.7513 40.68 53.1473 41.64 53.8433 42.312C54.5633 42.96 55.4393 43.284 56.4713 43.284C58.0073 43.284 59.0753 42.636 59.6753 41.34H66.2273C65.8913 42.66 65.2793 43.848 64.3913 44.904C63.5273 45.96 62.4353 46.788 61.1153 47.388C59.7953 47.988 58.3193 48.288 56.6873 48.288C54.7193 48.288 52.9673 47.868 51.4313 47.028C49.8953 46.188 48.6953 44.988 47.8313 43.428C46.9673 41.868 46.5353 40.044 46.5353 37.956C46.5353 35.868 46.9553 34.044 47.7953 32.484C48.6593 30.924 49.8593 29.724 51.3953 28.884C52.9313 28.044 54.6953 27.624 56.6873 27.624C58.6313 27.624 60.3593 28.032 61.8713 28.848C63.3833 29.664 64.5593 30.828 65.3993 32.34C66.2633 33.852 66.6953 35.616 66.6953 37.632ZM60.3953 36.012C60.3953 34.956 60.0353 34.116 59.3153 33.492C58.5953 32.868 57.6953 32.556 56.6153 32.556C55.5833 32.556 54.7073 32.856 53.9873 33.456C53.2913 34.056 52.8593 34.908 52.6913 36.012H60.3953Z" fill="black"/>
<path d="M140.008 38.956C140.008 36.868 140.428 35.044 141.268 33.484C142.132 31.924 143.32 30.724 144.832 29.884C146.368 29.044 148.12 28.624 150.088 28.624C152.608 28.624 154.708 29.284 156.388 30.604C158.092 31.924 159.208 33.784 159.736 36.184H153.184C152.632 34.648 151.564 33.88 149.98 33.88C148.852 33.88 147.952 34.324 147.28 35.212C146.608 36.076 146.272 37.324 146.272 38.956C146.272 40.588 146.608 41.848 147.28 42.736C147.952 43.6 148.852 44.032 149.98 44.032C151.564 44.032 152.632 43.264 153.184 41.728H159.736C159.208 44.08 158.092 45.928 156.388 47.272C154.684 48.616 152.584 49.288 150.088 49.288C148.12 49.288 146.368 48.868 144.832 48.028C143.32 47.188 142.132 45.988 141.268 44.428C140.428 42.868 140.008 41.044 140.008 38.956ZM169.185 22.36V49H163.029V22.36H169.185ZM193.482 28.912V49H187.326V46.264C186.702 47.152 185.85 47.872 184.77 48.424C183.714 48.952 182.538 49.216 181.242 49.216C179.706 49.216 178.35 48.88 177.174 48.208C175.998 47.512 175.086 46.516 174.438 45.22C173.79 43.924 173.466 42.4 173.466 40.648V28.912H179.586V39.82C179.586 41.164 179.934 42.208 180.63 42.952C181.326 43.696 182.262 44.068 183.438 44.068C184.638 44.068 185.586 43.696 186.282 42.952C186.978 42.208 187.326 41.164 187.326 39.82V28.912H193.482ZM204.06 31.756C204.636 30.82 205.464 30.064 206.544 29.488C207.624 28.912 208.86 28.624 210.252 28.624C211.908 28.624 213.408 29.044 214.752 29.884C216.096 30.724 217.152 31.924 217.92 33.484C218.712 35.044 219.108 36.856 219.108 38.92C219.108 40.984 218.712 42.808 217.92 44.392C217.152 45.952 216.096 47.164 214.752 48.028C213.408 48.868 211.908 49.288 210.252 49.288C208.836 49.288 207.6 49.012 206.544 48.46C205.488 47.884 204.66 47.128 204.06 46.192V49H197.904V22.36H204.06V31.756ZM212.844 38.92C212.844 37.384 212.412 36.184 211.548 35.32C210.708 34.432 209.664 33.988 208.416 33.988C207.192 33.988 206.148 34.432 205.284 35.32C204.444 36.208 204.024 37.42 204.024 38.956C204.024 40.492 204.444 41.704 205.284 42.592C206.148 43.48 207.192 43.924 208.416 43.924C209.64 43.924 210.684 43.48 211.548 42.592C212.412 41.68 212.844 40.456 212.844 38.92Z" fill="black"/>
<circle cx="103.5" cy="36.5" r="35.5" fill="#8AC2F6"/>
<path d="M114.192 30.92L112.368 39.56H118.992V43.4H111.552L109.488 53H105.312L107.376 43.4H97.296L95.232 53H91.056L93.12 43.4H85.584V39.56H93.936L95.76 30.92H88.32V27.08H96.576L98.64 17.48H102.816L100.752 27.08H110.832L112.896 17.48H117.072L115.008 27.08H121.68V30.92H114.192ZM110.016 30.92H99.936L98.112 39.56H108.192L110.016 30.92Z" fill="white"/>
</svg>
